<svg width="510" height="90" viewBox="0 0 510 90" fill="none" xmlns="http://www.w3.org/2000/svg">
<path d="M506.034 31.3802L477.67 27.3145L464.99 1.9613C464.644 1.26715 464.074 0.705214 463.37 0.363646C461.605 -0.495784 459.46 0.220407 458.577 1.9613L445.898 27.3145L417.533 31.3802C416.751 31.4904 416.036 31.854 415.488 32.4049C414.827 33.0758 414.462 33.9784 414.474 34.9143C414.487 35.8502 414.876 36.7429 415.555 37.3962L436.078 57.1301L431.229 84.9954C431.115 85.6436 431.188 86.3103 431.439 86.9198C431.69 87.5293 432.109 88.0573 432.649 88.4439C433.188 88.8304 433.827 89.0602 434.492 89.1069C435.158 89.1537 435.823 89.0157 436.413 88.7086L461.784 75.5527L487.154 88.7086C487.847 89.0722 488.651 89.1934 489.422 89.0612C491.366 88.7306 492.673 86.9126 492.338 84.9954L487.49 57.1301L508.012 37.3962C508.57 36.8563 508.939 36.1512 509.051 35.3799C509.352 33.4517 507.99 31.6667 506.034 31.3802V31.3802ZM478.854 54.3534L482.887 77.525L461.784 66.5948L440.68 77.536L444.713 54.3645L427.643 37.9472L451.238 34.5645L461.784 13.4865L472.33 34.5645L495.924 37.9472L478.854 54.3534Z" fill="#FFC700"/>
<path d="M195.179 31.3802L166.814 27.3145L154.134 1.9613C153.788 1.26715 153.218 0.705214 152.514 0.363646C150.749 -0.495784 148.604 0.220407 147.722 1.9613L135.042 27.3145L106.677 31.3802C105.895 31.4904 105.18 31.854 104.633 32.4049C103.971 33.0758 103.606 33.9784 103.619 34.9143C103.631 35.8502 104.02 36.7429 104.7 37.3962L125.222 57.1301L120.374 84.9954C120.26 85.6436 120.333 86.3103 120.584 86.9198C120.834 87.5293 121.253 88.0573 121.793 88.4439C122.333 88.8304 122.972 89.0602 123.637 89.1069C124.302 89.1537 124.967 89.0157 125.557 88.7086L150.928 75.5527L176.299 88.7086C176.991 89.0722 177.796 89.1934 178.567 89.0612C180.511 88.7306 181.818 86.9126 181.482 84.9954L176.634 57.1301L197.156 37.3962C197.715 36.8563 198.084 36.1512 198.195 35.3799C198.497 33.4517 197.134 31.6667 195.179 31.3802V31.3802ZM167.998 54.3534L172.031 77.525L150.928 66.5948L129.825 77.536L133.858 54.3645L116.787 37.9472L140.382 34.5645L150.928 13.4865L161.474 34.5645L185.069 37.9472L167.998 54.3534Z" fill="#FFC700"/>
<path d="M91.5604 31.3802L63.1956 27.3145L50.5158 1.9613C50.1694 1.26715 49.5997 0.705214 48.8959 0.363646C47.1307 -0.495784 44.9858 0.220407 44.1032 1.9613L31.4234 27.3145L3.05862 31.3802C2.27661 31.4904 1.56162 31.854 1.01421 32.4049C0.352422 33.0758 -0.0122543 33.9784 0.000314436 34.9143C0.0128831 35.8502 0.401668 36.7429 1.08124 37.3962L21.6035 57.1301L16.7551 84.9954C16.6414 85.6436 16.7141 86.3103 16.965 86.9198C17.2159 87.5293 17.6349 88.0573 18.1746 88.4439C18.7143 88.8304 19.353 89.0602 20.0183 89.1069C20.6836 89.1537 21.3489 89.0157 21.9387 88.7086L47.3095 75.5527L72.6803 88.7086C73.3729 89.0722 74.1773 89.1934 74.9481 89.0612C76.892 88.7306 78.1991 86.9126 77.8639 84.9954L73.0154 57.1301L93.5377 37.3962C94.0963 36.8563 94.465 36.1512 94.5767 35.3799C94.8783 33.4517 93.5154 31.6667 91.5604 31.3802V31.3802ZM64.3798 54.3534L68.4127 77.525L47.3095 66.5948L26.2063 77.536L30.2392 54.3645L13.169 37.9472L36.7635 34.5645L47.3095 13.4865L57.8555 34.5645L81.45 37.9472L64.3798 54.3534Z" fill="#FFC700"/>
<path d="M298.797 31.3802L270.433 27.3145L257.753 1.9613C257.406 1.26715 256.837 0.705214 256.133 0.363646C254.368 -0.495784 252.223 0.220407 251.34 1.9613L238.66 27.3145L210.296 31.3802C209.514 31.4904 208.799 31.854 208.251 32.4049C207.589 33.0758 207.225 33.9784 207.237 34.9143C207.25 35.8502 207.639 36.7429 208.318 37.3962L228.841 57.1301L223.992 84.9954C223.878 85.6436 223.951 86.3103 224.202 86.9198C224.453 87.5293 224.872 88.0573 225.412 88.4439C225.951 88.8304 226.59 89.0602 227.255 89.1069C227.921 89.1537 228.586 89.0157 229.176 88.7086L254.547 75.5527L279.917 88.7086C280.61 89.0722 281.414 89.1934 282.185 89.0612C284.129 88.7306 285.436 86.9126 285.101 84.9954L280.253 57.1301L300.775 37.3962C301.333 36.8563 301.702 36.1512 301.814 35.3799C302.115 33.4517 300.752 31.6667 298.797 31.3802V31.3802ZM271.617 54.3534L275.65 77.525L254.547 66.5948L233.443 77.536L237.476 54.3645L220.406 37.9472L244.001 34.5645L254.547 13.4865L265.093 34.5645L288.687 37.9472L271.617 54.3534Z" fill="#FFC700"/>
<path d="M402.416 31.3802L374.051 27.3145L361.371 1.9613C361.025 1.26715 360.455 0.705214 359.751 0.363646C357.986 -0.495784 355.841 0.220407 354.959 1.9613L342.279 27.3145L313.914 31.3802C313.132 31.4904 312.417 31.854 311.87 32.4049C311.208 33.0758 310.843 33.9784 310.856 34.9143C310.868 35.8502 311.257 36.7429 311.937 37.3962L332.459 57.1301L327.611 84.9954C327.497 85.6436 327.57 86.3103 327.821 86.9198C328.071 87.5293 328.491 88.0573 329.03 88.4439C329.57 88.8304 330.209 89.0602 330.874 89.1069C331.539 89.1537 332.204 89.0157 332.794 88.7086L358.165 75.5527L383.536 88.7086C384.229 89.0722 385.033 89.1934 385.804 89.0612C387.748 88.7306 389.055 86.9126 388.72 84.9954L383.871 57.1301L404.393 37.3962C404.952 36.8563 405.321 36.1512 405.432 35.3799C405.734 33.4517 404.371 31.6667 402.416 31.3802V31.3802ZM375.235 54.3534L379.268 77.525L358.165 66.5948L337.062 77.536L341.095 54.3645L324.025 37.9472L347.619 34.5645L358.165 13.4865L368.711 34.5645L392.306 37.9472L375.235 54.3534Z" fill="#FFC700"/>
</svg>
