<svg width="50" height="50" viewBox="0 0 50 50" fill="none" xmlns="http://www.w3.org/2000/svg">
<rect width="50" height="50" rx="10" fill="#000052"/>
<path d="M37.3572 22.8929H26.1072V11.6429H22.8929V22.8929H11.6429V26.1071H22.8929V37.3571H26.1072V26.1071H37.3572V22.8929Z" fill="#F4F4F8"/>
<path d="M24.5 5.21429C35.1071 5.21429 43.7857 13.8929 43.7857 24.5C43.7857 35.1071 35.1071 43.7857 24.5 43.7857C13.8929 43.7857 5.21429 35.1071 5.21429 24.5C5.21429 13.8929 13.8929 5.21429 24.5 5.21429ZM24.5 2C12.125 2 2 12.125 2 24.5C2 36.875 12.125 47 24.5 47C36.875 47 47 36.875 47 24.5C47 12.125 36.875 2 24.5 2Z" fill="#F4F4F8"/>
</svg>
