<svg width="50" height="32" viewBox="0 0 50 32" fill="none" xmlns="http://www.w3.org/2000/svg">
<path fill-rule="evenodd" clip-rule="evenodd" d="M0 6.25C0 4.5924 0.65848 3.00268 1.83058 1.83058C3.00269 0.65848 4.5924 4.32851e-08 6.25 4.32851e-08H29.6875C31.2034 -0.000178275 32.6677 0.550602 33.8077 1.54977C34.9478 2.54895 35.6858 3.9284 35.8844 5.43125L45.6031 1.1125C46.0788 0.900536 46.6 0.810824 47.1192 0.851517C47.6384 0.89221 48.1392 1.06202 48.5761 1.34551C49.0129 1.629 49.372 2.01718 49.6207 2.47476C49.8694 2.93235 49.9998 3.44483 50 3.96563V27.2844C49.9995 27.8048 49.8691 28.3168 49.6206 28.774C49.3721 29.2312 49.0134 29.6191 48.5769 29.9025C48.1405 30.186 47.6402 30.3559 47.1214 30.3969C46.6026 30.4379 46.0818 30.3488 45.6063 30.1375L35.8844 25.8188C35.6858 27.3216 34.9478 28.7011 33.8077 29.7002C32.6677 30.6994 31.2034 31.2502 29.6875 31.25H6.25C4.5924 31.25 3.00269 30.5915 1.83058 29.4194C0.65848 28.2473 0 26.6576 0 25V6.25ZM35.9375 22.4219L46.875 27.2844V3.96563L35.9375 8.82812V22.4219ZM6.25 3.125C5.4212 3.125 4.62634 3.45424 4.04029 4.04029C3.45424 4.62634 3.125 5.4212 3.125 6.25V25C3.125 25.8288 3.45424 26.6237 4.04029 27.2097C4.62634 27.7958 5.4212 28.125 6.25 28.125H29.6875C30.5163 28.125 31.3112 27.7958 31.8972 27.2097C32.4833 26.6237 32.8125 25.8288 32.8125 25V6.25C32.8125 5.4212 32.4833 4.62634 31.8972 4.04029C31.3112 3.45424 30.5163 3.125 29.6875 3.125H6.25Z" fill="#1B1BE6"/>
</svg>
