<svg width="50" height="46" viewBox="0 0 50 46" fill="none" xmlns="http://www.w3.org/2000/svg">
<path fill-rule="evenodd" clip-rule="evenodd" d="M34.2531 36.4219C35.1444 35.4721 35.715 34.2664 35.8844 32.975L45.6031 37.2938C46.0788 37.5057 46.6 37.5954 47.1192 37.5547C47.6384 37.514 48.1392 37.3442 48.5761 37.0607C49.0129 36.7773 49.372 36.3891 49.6207 35.9315C49.8694 35.4739 49.9998 34.9614 50 34.4406V11.1219C49.9995 10.6015 49.8691 10.0895 49.6206 9.63224C49.3721 9.17502 49.0134 8.78711 48.5769 8.5037C48.1405 8.22029 47.6402 8.05036 47.1214 8.00933C46.6026 7.9683 46.0818 8.05747 45.6063 8.26875L35.8844 12.5875C35.6858 11.0846 34.9478 9.7052 33.8077 8.70602C32.6677 7.70685 31.2034 7.15607 29.6875 7.15625H13.35L15.5813 10.2812H29.6875C30.5163 10.2812 31.3112 10.6105 31.8972 11.1965C32.4833 11.7826 32.8125 12.5774 32.8125 13.4062V32.1562C32.8131 32.7268 32.6575 33.2866 32.3625 33.775L34.2531 36.4219ZM4.4625 10.8437C4.04951 11.1314 3.7122 11.5147 3.47931 11.9609C3.24642 12.4071 3.12486 12.9029 3.125 13.4062V32.1562C3.125 32.9851 3.45424 33.7799 4.04029 34.366C4.62634 34.952 5.4212 35.2812 6.25 35.2812H21.9188L24.15 38.4062H6.25C4.5924 38.4062 3.00269 37.7478 1.83058 36.5757C0.65848 35.4036 0 33.8139 0 32.1562V13.4062C0 11.2969 1.04375 9.43125 2.64687 8.3L4.45938 10.8437H4.4625ZM46.875 34.4375L35.9375 29.5781V15.9844L46.875 11.1219V34.4406V34.4375ZM33.1031 45.5625L1.85312 1.8125L4.39687 0L35.6469 43.75L33.1031 45.5625Z" fill="#BBBBBB"/>
</svg>
