<svg width="18" height="18" viewBox="0 0 18 18" fill="none" xmlns="http://www.w3.org/2000/svg">
<path fill-rule="evenodd" clip-rule="evenodd" d="M16.0797 14.5563C17.3093 12.9899 17.9846 11.06 17.9997 9.06888C18.0149 7.07773 17.369 5.1378 16.1632 3.55298C15.2737 2.38292 14.1111 1.44852 12.7769 0.831469C11.4428 0.214417 9.97783 -0.0665041 8.51003 0.0132643C7.04224 0.0930328 5.61633 0.531062 4.35696 1.28906C3.09759 2.04706 2.04309 3.10195 1.28565 4.36152V1.28548H0V5.78449L0.642827 6.4272H5.14262V5.14177H2.32832C3.18718 3.65725 4.51583 2.50078 6.10477 1.85473C7.6937 1.20868 9.45251 1.10981 11.1039 1.57371C12.7552 2.0376 14.2051 3.03787 15.225 4.41678C16.2449 5.79569 16.7767 7.4748 16.7366 9.18932C16.6965 10.9038 16.0867 12.5562 15.0034 13.886C13.9202 15.2157 12.425 16.147 10.7538 16.5332C9.08255 16.9194 7.33029 16.7384 5.77331 16.0187C4.21634 15.2991 2.94324 14.0818 2.15476 12.5587L1.01438 13.1526C1.7088 14.488 2.72718 15.628 3.97629 16.4681C5.2254 17.3081 6.66533 17.8215 8.16425 17.9612C9.66317 18.1008 11.1732 17.8623 12.556 17.2675C13.9389 16.6726 15.1504 15.7404 16.0797 14.5563ZM11.7586 13.3094L12.6688 12.4006L8.99958 8.73069V3.85634H7.71392V8.99806L7.90163 9.45311L11.7586 13.3094Z" fill="#999999"/>
</svg>
