<svg width="21" height="19" viewBox="0 0 21 19" fill="none" xmlns="http://www.w3.org/2000/svg">
<path d="M19.95 3.80105H14.7V2.21466C14.6754 1.60653 14.3852 1.03204 13.8931 0.617145C13.4011 0.202245 12.7473 -0.0192157 12.075 0.00130943H8.925C8.25274 -0.0192157 7.59891 0.202245 7.10685 0.617145C6.61479 1.03204 6.32463 1.60653 6.3 2.21466V3.80105H1.05C0.771523 3.80105 0.504451 3.90113 0.307538 4.07928C0.110625 4.25742 0 4.49904 0 4.75098C0 5.00292 0.110625 5.24454 0.307538 5.42269C0.504451 5.60083 0.771523 5.70092 1.05 5.70092H2.1V16.1502C2.1 16.906 2.43187 17.6309 3.02261 18.1653C3.61335 18.6998 4.41457 19 5.25 19H15.75C16.5854 19 17.3866 18.6998 17.9774 18.1653C18.5681 17.6309 18.9 16.906 18.9 16.1502V5.70092H19.95C20.2285 5.70092 20.4955 5.60083 20.6925 5.42269C20.8894 5.24454 21 5.00292 21 4.75098C21 4.49904 20.8894 4.25742 20.6925 4.07928C20.4955 3.90113 20.2285 3.80105 19.95 3.80105ZM8.4 13.3004C8.4 13.5523 8.28937 13.794 8.09246 13.9721C7.89555 14.1502 7.62848 14.2503 7.35 14.2503C7.07152 14.2503 6.80445 14.1502 6.60754 13.9721C6.41062 13.794 6.3 13.5523 6.3 13.3004V9.50065C6.3 9.24872 6.41062 9.0071 6.60754 8.82895C6.80445 8.6508 7.07152 8.55072 7.35 8.55072C7.62848 8.55072 7.89555 8.6508 8.09246 8.82895C8.28937 9.0071 8.4 9.24872 8.4 9.50065V13.3004ZM8.4 2.21466C8.4 2.06267 8.6205 1.90118 8.925 1.90118H12.075C12.3795 1.90118 12.6 2.06267 12.6 2.21466V3.80105H8.4V2.21466ZM14.7 13.3004C14.7 13.5523 14.5894 13.794 14.3925 13.9721C14.1955 14.1502 13.9285 14.2503 13.65 14.2503C13.3715 14.2503 13.1045 14.1502 12.9075 13.9721C12.7106 13.794 12.6 13.5523 12.6 13.3004V9.50065C12.6 9.24872 12.7106 9.0071 12.9075 8.82895C13.1045 8.6508 13.3715 8.55072 13.65 8.55072C13.9285 8.55072 14.1955 8.6508 14.3925 8.82895C14.5894 9.0071 14.7 9.24872 14.7 9.50065V13.3004Z" fill="#F24E1E"/>
</svg>
