<svg width="20" height="20" viewBox="0 0 20 20" fill="none" xmlns="http://www.w3.org/2000/svg">
<path d="M19 4.0011H14V2.33122C13.9765 1.69108 13.7002 1.08636 13.2316 0.649626C12.7629 0.21289 12.1402 -0.0202271 11.5 0.00137834H8.5C7.85975 -0.0202271 7.23706 0.21289 6.76843 0.649626C6.2998 1.08636 6.02346 1.69108 6 2.33122V4.0011H1C0.734784 4.0011 0.48043 4.10645 0.292893 4.29398C0.105357 4.4815 0 4.73584 0 5.00103C0 5.26623 0.105357 5.52057 0.292893 5.70809C0.48043 5.89562 0.734784 6.00096 1 6.00096H2V17.0002C2 17.7958 2.31607 18.5588 2.87868 19.1214C3.44129 19.684 4.20435 20 5 20H15C15.7956 20 16.5587 19.684 17.1213 19.1214C17.6839 18.5588 18 17.7958 18 17.0002V6.00096H19C19.2652 6.00096 19.5196 5.89562 19.7071 5.70809C19.8946 5.52057 20 5.26623 20 5.00103C20 4.73584 19.8946 4.4815 19.7071 4.29398C19.5196 4.10645 19.2652 4.0011 19 4.0011ZM8 14.0004C8 14.2656 7.89464 14.5199 7.70711 14.7075C7.51957 14.895 7.26522 15.0003 7 15.0003C6.73478 15.0003 6.48043 14.895 6.29289 14.7075C6.10536 14.5199 6 14.2656 6 14.0004V10.0007C6 9.73549 6.10536 9.48115 6.29289 9.29363C6.48043 9.10611 6.73478 9.00076 7 9.00076C7.26522 9.00076 7.51957 9.10611 7.70711 9.29363C7.89464 9.48115 8 9.73549 8 10.0007V14.0004ZM8 2.33122C8 2.17123 8.21 2.00124 8.5 2.00124H11.5C11.79 2.00124 12 2.17123 12 2.33122V4.0011H8V2.33122ZM14 14.0004C14 14.2656 13.8946 14.5199 13.7071 14.7075C13.5196 14.895 13.2652 15.0003 13 15.0003C12.7348 15.0003 12.4804 14.895 12.2929 14.7075C12.1054 14.5199 12 14.2656 12 14.0004V10.0007C12 9.73549 12.1054 9.48115 12.2929 9.29363C12.4804 9.10611 12.7348 9.00076 13 9.00076C13.2652 9.00076 13.5196 9.10611 13.7071 9.29363C13.8946 9.48115 14 9.73549 14 10.0007V14.0004Z" fill="#F4F4F8"/>
</svg>
