<svg width="30" height="30" viewBox="0 0 30 30" fill="none" xmlns="http://www.w3.org/2000/svg">
<path d="M0.5 0.5H29.5V29.5H0.5V0.5Z" stroke="#000052"/>
<path d="M27.588 5.22022L27.5885 5.22071C27.6669 5.29889 27.7291 5.39178 27.7715 5.49404C27.814 5.5963 27.8358 5.70594 27.8358 5.81667C27.8358 5.92739 27.814 6.03703 27.7715 6.13929C27.7291 6.24156 27.6669 6.33444 27.5885 6.41262L27.5863 6.41479L16.29 17.8185L12.4213 18.672C12.363 18.6768 12.3044 18.6761 12.2463 18.6697L12.2202 18.6668L12.194 18.6667C12.0696 18.6661 11.9469 18.6379 11.8348 18.5842L11.6189 19.0352L11.8347 18.5842C11.7226 18.5305 11.6237 18.4526 11.5452 18.3561C11.4667 18.2597 11.4106 18.147 11.3808 18.0262C11.3516 17.9074 11.3486 17.7836 11.3721 17.6635L12.2633 13.8014L23.5873 2.4114C23.5874 2.41129 23.5875 2.41117 23.5876 2.41106C23.6657 2.33282 23.7585 2.27074 23.8606 2.22836C23.9629 2.18592 24.0725 2.16407 24.1832 2.16407C24.2939 2.16407 24.4036 2.18592 24.5058 2.22836C24.6081 2.2708 24.701 2.333 24.7792 2.4114L24.7797 2.41189L27.588 5.22022ZM15.7829 17.2215L15.9261 17.1898L16.0295 17.0859L24.6378 8.42753L24.9893 8.07398L24.6368 7.72145L22.2868 5.37145L21.932 5.0167L21.5785 5.37264L12.9785 14.031L12.8787 14.1315L12.8464 14.2693L12.1381 17.2943L11.9568 18.0683L12.7329 17.8965L15.7829 17.2215ZM24.8713 7.48689L25.2238 7.83931L25.5773 7.48802L26.8856 6.18801L27.2415 5.83446L26.8868 5.47978L24.5201 3.11311L24.1631 2.75616L23.8096 3.11652L22.518 4.43319L22.1711 4.78671L22.5213 5.13689L24.8713 7.48689Z" stroke="#000052"/>
<path d="M23.3335 25.5H23.8335V25V14.3738L24.5002 13.7071V25C24.5002 25.3094 24.3772 25.6062 24.1585 25.825C23.9397 26.0438 23.6429 26.1667 23.3335 26.1667H5.00016C4.69074 26.1667 4.394 26.0438 4.1752 25.825C3.95641 25.6062 3.8335 25.3094 3.8335 25V6.66667C3.8335 6.35725 3.95641 6.0605 4.1752 5.84171C4.394 5.62292 4.69074 5.5 5.00016 5.5H16.4764L15.8097 6.16667H5.00016H4.50016V6.66667V25V25.5H5.00016H23.3335Z" stroke="#000052"/>
</svg>
