<svg width="20" height="19" viewBox="0 0 20 19" fill="none" xmlns="http://www.w3.org/2000/svg">
<path d="M18.6279 3.00591L16.7556 1.27135C16.6726 1.19416 16.5738 1.13292 16.4652 1.09113C16.3565 1.04934 16.24 1.02783 16.1223 1.02783C16.0046 1.02783 15.8881 1.04934 15.7795 1.09113C15.6708 1.13292 15.5721 1.19416 15.489 1.27135L7.87231 8.36914L7.25564 10.8449C7.22937 10.9649 7.23213 11.0888 7.26373 11.2077C7.29532 11.3266 7.35497 11.4375 7.43838 11.5325C7.52178 11.6275 7.62687 11.7042 7.74609 11.7571C7.86531 11.8099 7.99569 11.8377 8.12786 11.8383C8.19617 11.8452 8.26511 11.8452 8.33342 11.8383L11.0279 11.2875L18.6279 4.17944C18.7112 4.10246 18.7773 4.01101 18.8224 3.91032C18.8675 3.80963 18.8907 3.70169 18.8907 3.59267C18.8907 3.48366 18.8675 3.37572 18.8224 3.27503C18.7773 3.17434 18.7112 3.08289 18.6279 3.00591ZM10.4501 10.3353L8.41675 10.7522L8.88897 8.88385L14.6223 3.53606L16.189 4.98753L10.4501 10.3353ZM16.8168 4.40591L15.2501 2.95444L16.1112 2.1412L17.689 3.60297L16.8168 4.40591Z" fill="#F4F4F8"/>
<path d="M15.5555 15.4411H3.33328V4.11755H10.6777L11.7888 3.08813H3.33328C3.03859 3.08813 2.75598 3.19659 2.5476 3.38964C2.33923 3.58269 2.22217 3.84453 2.22217 4.11755V15.4411C2.22217 15.7141 2.33923 15.9759 2.5476 16.169C2.75598 16.362 3.03859 16.4705 3.33328 16.4705H15.5555C15.8502 16.4705 16.1328 16.362 16.3412 16.169C16.5496 15.9759 16.6666 15.7141 16.6666 15.4411V7.72049L15.5555 8.7499V15.4411Z" fill="#F4F4F8"/>
</svg>
