<svg width="25" height="18" viewBox="0 0 25 18" fill="none" xmlns="http://www.w3.org/2000/svg">
<path d="M12.5001 4.09094C11.5112 4.09094 10.5445 4.37886 9.72221 4.91827C8.89994 5.45769 8.25906 6.22439 7.88062 7.12141C7.50217 8.01842 7.40315 9.00548 7.59608 9.95775C7.78901 10.91 8.26523 11.7847 8.96451 12.4713C9.66379 13.1578 10.5547 13.6254 11.5247 13.8148C12.4946 14.0042 13.5 13.907 14.4136 13.5354C15.3273 13.1639 16.1082 12.5347 16.6576 11.7274C17.207 10.9201 17.5003 9.97096 17.5003 9.00003C17.5003 7.69806 16.9735 6.44942 16.0358 5.52878C15.0981 4.60815 13.8263 4.09094 12.5001 4.09094ZM12.5001 12.2728C11.8409 12.2728 11.1964 12.0808 10.6482 11.7212C10.1 11.3616 9.67276 10.8505 9.42046 10.2525C9.16816 9.65444 9.10215 8.9964 9.23077 8.36156C9.35939 7.72671 9.67687 7.14356 10.1431 6.68587C10.6092 6.22817 11.2032 5.91647 11.8498 5.79019C12.4964 5.66391 13.1667 5.72872 13.7758 5.97643C14.3849 6.22413 14.9055 6.64361 15.2718 7.1818C15.6381 7.72 15.8336 8.35275 15.8336 9.00003C15.8336 9.86801 15.4824 10.7004 14.8572 11.3142C14.2321 11.928 13.3842 12.2728 12.5001 12.2728Z" fill="#999999"/>
<path d="M24.9504 8.72182C23.9702 6.23262 22.2686 4.07996 20.0559 2.52989C17.8432 0.979818 15.2163 0.100287 12.5 0C9.78369 0.100287 7.15684 0.979818 4.94412 2.52989C2.7314 4.07996 1.02981 6.23262 0.0496469 8.72182C-0.016549 8.90158 -0.016549 9.09842 0.0496469 9.27818C1.02981 11.7674 2.7314 13.92 4.94412 15.4701C7.15684 17.0202 9.78369 17.8997 12.5 18C15.2163 17.8997 17.8432 17.0202 20.0559 15.4701C22.2686 13.92 23.9702 11.7674 24.9504 9.27818C25.0166 9.09842 25.0166 8.90158 24.9504 8.72182ZM12.5 16.3636C8.08321 16.3636 3.41641 13.1482 1.72469 9C3.41641 4.85182 8.08321 1.63636 12.5 1.63636C16.9168 1.63636 21.5836 4.85182 23.2753 9C21.5836 13.1482 16.9168 16.3636 12.5 16.3636Z" fill="#000052"/>
</svg>
