<svg width="25" height="18" viewBox="0 0 25 18" fill="none" xmlns="http://www.w3.org/2000/svg">
<path d="M12.5 4.09091C11.5111 4.09091 10.5444 4.37883 9.72209 4.91824C8.89982 5.45766 8.25894 6.22436 7.88049 7.12138C7.50204 8.01839 7.40302 9.00545 7.59596 9.95772C7.78889 10.91 8.26511 11.7847 8.96439 12.4713C9.66367 13.1578 10.5546 13.6253 11.5245 13.8148C12.4945 14.0042 13.4998 13.907 14.4135 13.5354C15.3271 13.1639 16.1081 12.5346 16.6575 11.7273C17.2069 10.9201 17.5002 9.97093 17.5002 9C17.5002 7.69803 16.9734 6.44938 16.0357 5.52875C15.0979 4.60812 13.8261 4.09091 12.5 4.09091ZM12.5 12.2727C11.8407 12.2727 11.1962 12.0808 10.6481 11.7212C10.0999 11.3616 9.67263 10.8504 9.42034 10.2524C9.16804 9.65441 9.10202 8.99637 9.23064 8.36153C9.35927 7.72668 9.67674 7.14353 10.1429 6.68583C10.6091 6.22814 11.2031 5.91644 11.8497 5.79016C12.4963 5.66388 13.1666 5.72869 13.7757 5.9764C14.3848 6.2241 14.9054 6.64358 15.2717 7.18177C15.6379 7.71997 15.8334 8.35272 15.8334 9C15.8334 9.86798 15.4822 10.7004 14.8571 11.3142C14.232 11.9279 13.3841 12.2727 12.5 12.2727Z" fill="#999999"/>
<path d="M24.9504 8.72182C23.9702 6.23262 22.2686 4.07996 20.0559 2.52989C17.8432 0.979818 15.2163 0.100287 12.5 0C9.78369 0.100287 7.15684 0.979818 4.94412 2.52989C2.7314 4.07996 1.02981 6.23262 0.0496469 8.72182C-0.016549 8.90158 -0.016549 9.09842 0.0496469 9.27818C1.02981 11.7674 2.7314 13.92 4.94412 15.4701C7.15684 17.0202 9.78369 17.8997 12.5 18C15.2163 17.8997 17.8432 17.0202 20.0559 15.4701C22.2686 13.92 23.9702 11.7674 24.9504 9.27818C25.0166 9.09842 25.0166 8.90158 24.9504 8.72182ZM12.5 16.3636C8.08321 16.3636 3.41641 13.1482 1.72469 9C3.41641 4.85182 8.08321 1.63636 12.5 1.63636C16.9168 1.63636 21.5836 4.85182 23.2753 9C21.5836 13.1482 16.9168 16.3636 12.5 16.3636Z" fill="#999999"/>
</svg>
