<svg width="30" height="30" viewBox="0 0 30 30" fill="none" xmlns="http://www.w3.org/2000/svg">
<path d="M15 30C23.2843 30 30 23.2843 30 15C30 6.71573 23.2843 0 15 0C6.71573 0 0 6.71573 0 15C0 23.2843 6.71573 30 15 30Z" fill="#699635"/>
<path d="M14.8501 12.35C14.8001 11.9 15.0501 11.45 15.5001 11.55C15.8501 11.6 16.2501 11.95 16.0501 12.3C15.7501 12.85 14.9501 12.85 14.4501 13.15C14.5001 13.45 15.9501 13.1 16.2001 13.1C16.4501 13.1 16.7001 13.2 16.5501 13.5C16.4001 13.8 15.9001 13.8 15.6001 13.85C15.3001 13.9 14.8001 13.9 14.6501 14.15C14.3501 14.55 14.9501 14.6 15.1501 14.7C15.6501 14.95 14.8501 15.2 14.6501 15.15C13.9001 15 13.7501 14.6 13.3001 14.1C12.8501 14.7 11.4501 16.05 11.1501 14.65C10.6501 14.85 10.1501 15.1 9.6001 15.15C9.8501 14.8 10.3501 14.65 10.7501 14.45C11.2501 14.2 11.2501 13.75 11.5501 13.35C11.6501 13.5 11.5501 13.7 11.6001 13.9C12.0001 13.7 12.5001 13.3 12.3001 12.8C12.3001 12.75 11.7001 11.55 12.2001 11.75C12.6501 11.95 12.5001 12.4 12.6001 12.75C12.7501 13.4 12.4501 13.75 11.9501 14.15C11.7501 14.3 11.2001 14.9 11.8501 14.9C12.3001 14.9 12.7001 14.4 12.9501 14.1C13.2501 13.7 13.1501 13.3 12.9501 12.85C12.8001 12.5 12.4501 11.75 12.9001 11.5C13.2501 12.05 13.4001 12.7 13.5501 13.35C13.6501 13.9 13.7501 14.45 14.3501 14.6C14.3001 14.2 14.5501 13.9 14.9001 13.75C14.6501 13.55 13.2501 13.8 13.8001 13.05C13.8501 12.7 14.8501 12.55 14.8501 12.35Z" fill="white"/>
<path d="M7.20006 14.2C7.45006 14.9 8.30006 14.65 8.80006 14.45C9.60006 14.05 9.60006 13.45 9.60006 12.65C9.30006 12.8 9.35006 13.35 9.25006 13.6C9.05006 14 8.40006 14.35 7.95006 14.3C7.30006 14.2 7.00006 13.1 7.50006 12.7C7.60006 13.05 7.35006 13.8 7.95006 13.85C8.40006 13.9 9.30006 13.35 9.15006 12.85C8.55006 13.05 8.20006 12.85 8.40006 12.2C8.55006 11.6 9.15006 12.05 9.40006 12.35C10.3501 11.8 8.65006 9.70002 9.65006 9.15002C9.85006 9.50002 10.1501 9.95002 9.90006 10.3C9.60006 10.7 9.90006 11.55 9.95006 12C10.4501 11.55 10.0501 12.35 10.4501 12.4C10.7001 12.45 10.8001 11.8 10.9501 11.8C11.0001 11.95 11.0001 12.4 11.2501 12.35C11.5501 12.25 11.2001 11.85 11.5001 11.75C11.6001 12 11.5501 12.75 11.2001 12.7C10.9001 12.65 10.9501 12.45 10.6001 12.65C10.3001 12.8 10.2001 12.65 10.0001 12.5C9.95006 13.1 10.1501 13.75 9.80006 14.3C9.50006 14.75 8.90006 15 8.40006 15.1C7.10006 15.35 6.75006 14.05 7.20006 13C7.30006 13.3 7.10006 13.85 7.20006 14.2Z" fill="white"/>
<path d="M19.4 14.4501C19.65 15.1001 20.15 13.7501 20.3 13.5501C20.7 12.9501 21.3 14.5001 21.55 13.5001C21.7 12.8501 21.5 12.2001 21.45 11.5501C21.4 11.1001 21.25 10.7001 20.95 10.3501C20.65 9.95006 20.35 9.60006 20.5 9.10006C21 9.30006 21 9.70006 21.25 10.1001C21.3 9.80006 21.1 9.40006 21.3 9.15006C21.55 8.80006 21.75 9.75006 21.75 9.85006C21.8 10.1001 21.55 10.2001 21.7 10.6001C21.8 10.9001 22 11.2001 22.2 11.4501C22.15 11.1501 21.7 9.10006 22.2 9.10006C22.35 9.10006 22.5 9.70006 22.5 9.80006C22.6 10.1001 22.4 10.3501 22.4 10.7001C22.35 11.3001 22.45 12.0001 22.85 12.4501C23.05 12.7001 23.8 13.6001 23.4 13.9001C23.1 13.5501 22.9 13.1501 22.65 12.8001C22.65 13.2001 22.75 13.6501 22.55 13.9501C22.35 13.8501 22.45 13.2001 22.45 13.0501C22.45 12.5001 22.1 12.0501 21.8 11.6001C21.7 12.3501 22.3 13.7501 21.6 14.3001C21.15 14.7001 20.55 13.8001 20.4 14.1501C20.25 14.4001 19.9 15.3001 19.5 15.2001C19 15.1001 18.65 13.7001 19.2 13.5501C19.25 13.8001 19.25 14.1501 19.4 14.4501Z" fill="white"/>
<path d="M8.69994 11.0501C9.04994 11.1001 8.69994 9.90005 8.69994 9.70005C8.74994 9.50005 8.89994 9.40005 8.99994 9.60005C9.14994 9.90005 9.14994 10.2501 9.19994 10.5501C9.19994 10.8001 9.24994 11.1001 9.04994 11.3001C8.74994 11.6001 8.34994 11.4501 8.19994 11.0501C7.49994 11.6501 8.39994 12.7001 7.79994 13.3001C7.69994 12.7501 7.79994 12.1501 7.59994 11.6501C7.49994 11.4001 7.04994 11.5001 6.99994 11.0501C6.99994 10.8501 7.14994 10.3001 6.94994 10.1501C6.84994 10.3501 6.74994 11.9001 6.24994 11.4501C5.84994 11.1501 5.94994 10.1501 6.09994 9.75005C6.39994 9.90005 6.04994 11.0001 6.44994 11.0501C6.64994 11.1001 6.69994 10.2501 6.74994 10.1001C6.89994 9.85005 7.39994 9.15005 7.29994 9.85005C7.24994 10.1501 6.99994 11.1001 7.59994 11.0501C7.54994 10.5501 7.49994 10.0501 7.39994 9.55005C7.34994 9.30005 7.49994 8.80005 7.69994 9.25005C7.84994 9.55005 7.74994 9.70005 7.69994 10.0001C7.64994 10.3501 7.79994 10.7001 7.84994 11.0001C8.14994 10.7501 7.74994 9.80005 7.99994 9.40005C8.59994 9.75005 7.94994 10.9501 8.69994 11.0501Z" fill="white"/>
<path d="M15.1499 11.1501C14.8999 11.5001 14.4499 11.2001 14.2499 10.9501C13.9999 11.2501 13.4999 11.7501 13.0999 11.3501C12.7999 11.0501 13.1499 10.5001 12.8999 10.2501C12.7499 10.5001 12.4999 11.7001 12.0499 11.1501C11.7999 10.8501 11.4499 9.80009 11.9999 9.55009C11.9499 9.95009 11.8499 10.4001 12.0999 10.7501C12.3499 11.1001 12.5999 10.2001 12.6999 10.0001C12.8499 9.65009 13.3499 9.05009 13.2499 9.80009C13.1999 10.1001 13.0999 10.8001 13.3999 11.0001C13.5999 11.1501 13.8499 10.9001 13.9499 10.7501C14.1499 10.5001 14.0499 10.1001 13.9999 9.80009C13.9499 9.55009 13.8499 9.25009 13.9999 9.00009C14.1999 8.70009 14.3499 9.40009 14.3499 9.55009C14.3499 9.70009 14.5499 11.2501 14.8999 10.7501C15.2499 10.3001 14.2999 9.30009 14.9499 9.05009C15.1999 8.95009 15.6499 9.95009 15.1499 9.65009C15.2999 10.1001 15.4999 10.7501 15.1499 11.1501Z" fill="white"/>
<path d="M17.05 11.75C17.1 12.4 17.65 14.2 16.9 14.6C16.8 14.4 16.9 14.1 16.95 13.85C17 13.4 16.9 12.95 16.85 12.55C16.75 11.6 16.65 10.9 16 10.15C15.85 9.95005 15.6 9.80005 15.55 9.50005C15.55 9.40005 15.5 8.95005 15.7 9.05005C15.85 9.10005 16.7 9.85005 16.25 9.85005C16.3 9.95005 16.5 10.35 16.6 10.35C16.6 10.1 16.3 9.35005 16.6 9.20005C16.85 9.05005 17.15 10 17.05 10.2C16.95 10.45 16.95 10.6 17.05 10.95C17.15 11.35 17.4 11.7 17.6 12.05C17.9 12.55 18.5 13.25 18.35 13.9C18.05 13.75 17.85 13.05 17.7 12.75C17.6 12.5 17.5 12.25 17.35 12.05C17.3 12 17 11.6 17.05 11.85V11.75Z" fill="white"/>
<path d="M23.9999 12.7C24.0499 13.75 23.6999 15.1 22.3999 15.1C22.3999 14.8 23.0499 14.5 23.2499 14.35C23.7499 13.95 23.6999 13.2 23.6499 12.65C23.5999 11.9 23.5499 11.15 23.3999 10.4C23.3499 9.95 23.0999 9.3 23.4999 9C23.7499 9.2 24.0999 9.75 23.9499 9.95C23.6999 10.25 23.9499 12.5 23.9999 12.7Z" fill="white"/>
<path d="M17.6 14.95C18.9 14.2 18.5 12.6 18.4 11.35C18.35 11 18.35 10.65 18.3 10.3C18.3 10.05 18.1001 9.69999 18.2001 9.44999C18.4501 8.79999 18.6501 9.39999 18.7001 9.79999C18.7501 10.05 18.5501 10.1 18.6 10.3C18.65 10.7 18.6501 11.1 18.7001 11.5C18.7501 12.15 18.85 12.8 18.8 13.4C18.7 14.35 18.2 15.4 17.05 15.2C17.1 15.1 17.45 15.05 17.6 14.95Z" fill="white"/>
<path d="M19.7 12.45C19.75 12.95 19.95 13.85 19.7 14.3C19.5 14.6 19.5 14.1 19.45 14.05C19.4 13.65 19.3999 13.25 19.3999 12.8C19.3 11.7 18.95 10.6 18.95 9.55003C18.95 8.20003 20.1 10.3 19.45 10.2C19.5 10.95 19.6 11.7 19.7 12.45Z" fill="white"/>
<path d="M11.55 9.90001C11.65 10.15 10.4 10.8 10.25 10.8C10.2 10.55 10.8 10.2 10.95 10.1C11.1 9.95001 11.2 9.95001 11.15 9.75001C11.05 9.55001 11.1 9.20001 11.35 9.10001C11.85 8.95001 11.5 9.70001 11.55 9.90001Z" fill="white"/>
<path d="M6.40004 14.3501C6.40004 14.7501 6.55004 14.5501 6.75004 14.4501C6.85004 14.6501 6.60004 15.2001 6.35004 14.9501C6.00004 14.6001 6.30004 13.8001 6.45004 13.4501C6.55004 13.7001 6.35004 14.1001 6.40004 14.3501Z" fill="white"/>
<path d="M20.5 11.25C20.55 11.05 20.4 10.85 20.55 10.65C20.75 10.4 20.95 10.7 20.85 10.8C20.75 10.9 20.6 10.7 20.6 11C20.6 11.15 20.7 11.45 20.55 11.6C20.45 11.55 20 10.9 20.05 10.8C20.25 10.6 20.45 11.2 20.5 11.25Z" fill="white"/>
<path d="M7.4499 12.1C7.3499 12.3 6.1999 12.95 6.1499 12.8C6.1499 12.65 7.5999 11.8 7.4499 12.1Z" fill="white"/>
<path d="M15.9499 14.65C15.7999 15.1 16.4499 14.7 16.5999 14.65C16.3999 15 15.6999 15.3 15.7999 14.65C15.7499 14.65 15.6499 14.7 15.5999 14.7C15.4999 14.6 16.0999 14.2 15.9499 14.65Z" fill="white"/>
<path d="M21.4 14.5C21.55 14.5 21.8 14.95 21.65 15.05C21.55 15.15 21.1 15.2 21.35 15C21.65 14.7 21.4 14.5 21.4 14.5Z" fill="white"/>
<path d="M14.35 11.95C14.4 11.85 14.4 11.7 14.45 11.6C14.95 12 13.65 12.65 13.9 11.7C14 11.8 14 11.95 14.1 12C14.1 11.9 14.15 11.75 14.15 11.65C14.25 11.75 14.25 11.9 14.35 11.95Z" fill="white"/>
<path d="M20.1999 12.6C20.0499 12.4 20.9499 11.85 21.0999 11.75C21.1999 11.9 20.4999 12.45 20.1999 12.6Z" fill="white"/>
<path d="M22.9999 10.6C22.8999 10.3 22.5999 9.69995 22.8999 9.44995C23.0999 9.59995 23.1999 10.35 22.9999 10.6Z" fill="white"/>
<path d="M17.5501 9.60005C17.5001 9.50005 17.3501 9.40005 17.3501 9.25005C17.4001 9.05005 17.5001 9.10005 17.6001 9.20005C17.7501 9.40005 17.8501 9.95005 17.6001 10.1C17.6001 9.95005 17.6501 9.75005 17.5501 9.60005Z" fill="white"/>
<path d="M11.4501 10.95C11.4501 11.25 10.9501 11.55 10.9001 11.15C10.8501 11 11.1001 10.45 11.2001 10.6C11.0001 11.05 11.0001 11.2 11.4501 10.95Z" fill="white"/>
<path d="M17.7 10.4C17.9 10.9 17.8 10.45 18 10.35C18.35 11 17.25 10.85 17.5 10.45C17.55 10.5 17.6 10.6 17.6 10.65C17.65 10.6 17.65 10.5 17.7 10.4Z" fill="white"/>
<path d="M20.9 12.7001C20.65 12.5001 20.95 12.2501 21.1 12.5001C21.2 12.6501 21.2 13.0501 21 13.1501C21 13.0001 21.05 12.8001 20.9 12.7001Z" fill="white"/>
<path d="M10.6501 13.8C10.6501 13.7 10.6001 12.95 10.7501 13.05C10.9501 13.15 10.9001 13.7 10.6501 13.8Z" fill="white"/>
<path d="M8.54996 9.10005C8.59996 9.25005 8.64996 9.45005 8.74996 9.20005C9.14996 9.65005 7.74996 9.50005 8.24996 9.05005C8.24996 9.10005 8.34996 9.40005 8.54996 9.10005Z" fill="white"/>
<path d="M13.65 10.2C13.65 10 13.35 9.15002 13.6 9.15002C13.9 9.20002 13.85 9.95002 13.65 10.2Z" fill="white"/>
<path d="M6.64997 9.75004C6.49997 9.70004 6.74997 9.45004 6.64997 9.25004C6.54997 9.30004 6.44997 9.15004 6.54997 9.05004C6.94997 8.75004 6.79997 9.75004 6.64997 9.75004Z" fill="white"/>
<path d="M19.6 19.9L19.4 19.3L19.2 19.9H8.25C8.25 19.9 8.35 20.8 9.45 20.8H19.15V21.5H21.8V19.9H19.6ZM21.3 21.1H19.5V20.6H21.3V21.1Z" fill="white"/>
</svg>
