<svg width="18" height="15" viewBox="0 0 18 15" fill="none" xmlns="http://www.w3.org/2000/svg">
<path d="M17.0273 3.07395C16.7655 2.47242 16.3881 1.92731 15.916 1.46915C15.4436 1.00962 14.8866 0.644437 14.2754 0.393462C13.6416 0.132183 12.9617 -0.001554 12.2754 1.36232e-05C11.3125 1.36232e-05 10.373 0.261667 9.55664 0.7559C9.36133 0.874129 9.17578 1.00399 9 1.14547C8.82422 1.00399 8.63867 0.874129 8.44336 0.7559C7.62695 0.261667 6.6875 1.36232e-05 5.72461 1.36232e-05C5.03125 1.36232e-05 4.35938 0.131809 3.72461 0.393462C3.11133 0.645424 2.55859 1.00786 2.08398 1.46915C1.61132 1.92679 1.23375 2.47203 0.972656 3.07395C0.701172 3.69998 0.5625 4.36477 0.5625 5.04895C0.5625 5.69436 0.695313 6.3669 0.958984 7.05108C1.17969 7.62284 1.49609 8.21592 1.90039 8.81481C2.54102 9.76258 3.42188 10.751 4.51562 11.7531C6.32812 13.4141 8.12305 14.5615 8.19922 14.608L8.66211 14.9026C8.86719 15.0325 9.13086 15.0325 9.33594 14.9026L9.79883 14.608C9.875 14.5596 11.668 13.4141 13.4824 11.7531C14.5762 10.751 15.457 9.76258 16.0977 8.81481C16.502 8.21592 16.8203 7.62284 17.0391 7.05108C17.3027 6.3669 17.4355 5.69436 17.4355 5.04895C17.4375 4.36477 17.2988 3.69998 17.0273 3.07395Z" fill="#D90429"/>
</svg>
