<svg width="40" height="50" viewBox="0 0 40 50" fill="none" xmlns="http://www.w3.org/2000/svg">
<path d="M35.4812 24.9913C35.4812 26.7538 35.1875 28.4506 34.65 30.0319L32.1062 27.4881C32.2727 26.6663 32.3564 25.8298 32.3562 24.9913V21.8663C32.3562 21.4519 32.5208 21.0544 32.8138 20.7614C33.1069 20.4684 33.5043 20.3038 33.9187 20.3038C34.3331 20.3038 34.7305 20.4684 35.0236 20.7614C35.3166 21.0544 35.4812 21.4519 35.4812 21.8663V24.9913ZM19.8562 37.4913C22.4125 37.4913 24.7875 36.7256 26.7687 35.4069L29.0125 37.6538C26.7817 39.2715 24.1609 40.2669 21.4187 40.5381V46.8663H30.7937C31.2081 46.8663 31.6055 47.0309 31.8986 47.3239C32.1916 47.6169 32.3562 48.0144 32.3562 48.4288C32.3562 48.8432 32.1916 49.2406 31.8986 49.5336C31.6055 49.8266 31.2081 49.9913 30.7937 49.9913H8.9187C8.5043 49.9913 8.10687 49.8266 7.81385 49.5336C7.52082 49.2406 7.3562 48.8432 7.3562 48.4288C7.3562 48.0144 7.52082 47.6169 7.81385 47.3239C8.10687 47.0309 8.5043 46.8663 8.9187 46.8663H18.2937V40.5381C14.4396 40.1508 10.8667 38.3457 8.26832 35.473C5.6699 32.6003 4.23115 28.8648 4.2312 24.9913V21.8663C4.2312 21.4519 4.39582 21.0544 4.68885 20.7614C4.98187 20.4684 5.3793 20.3038 5.7937 20.3038C6.2081 20.3038 6.60553 20.4684 6.89856 20.7614C7.19158 21.0544 7.3562 21.4519 7.3562 21.8663V24.9913C7.3562 28.3065 8.67316 31.4859 11.0174 33.8301C13.3616 36.1743 16.541 37.4913 19.8562 37.4913ZM29.2312 9.36626V24.6131L10.975 6.35689C11.6904 4.25452 13.1287 2.47426 15.0338 1.33303C16.9389 0.191814 19.1872 -0.236305 21.3784 0.124895C23.5696 0.486094 25.5615 1.61317 26.9995 3.30548C28.4376 4.99778 29.2284 7.14549 29.2312 9.36626Z" fill="#BBBBBB"/>
<path d="M24.5 33.1381L10.4813 19.1163V24.9913C10.4808 26.6329 10.9113 28.2458 11.7299 29.6688C12.5485 31.0918 13.7264 32.2749 15.1457 33.0997C16.5651 33.9245 18.1761 34.3622 19.8177 34.369C21.4593 34.3757 23.0739 33.9513 24.5 33.1381ZM0 4.22251L37.5 41.7225L39.7125 39.51L2.2125 2.01001L0 4.22251Z" fill="#BBBBBB"/>
</svg>
