<svg width="21" height="24" viewBox="0 0 21 24" fill="none" xmlns="http://www.w3.org/2000/svg">
<path d="M15.1667 12.5714C11.9467 12.5714 9.33333 15.1314 9.33333 18.2857C9.33333 21.44 11.9467 24 15.1667 24C18.3867 24 21 21.44 21 18.2857C21 15.1314 18.3867 12.5714 15.1667 12.5714ZM17.0917 20.9714L14.5833 18.5143V14.8571H15.75V18.0457L17.9083 20.16L17.0917 20.9714V20.9714ZM16.3333 2.28571H12.6233C12.1333 0.96 10.85 0 9.33333 0C7.81667 0 6.53333 0.96 6.04333 2.28571H2.33333C1.05 2.28571 0 3.31429 0 4.57143V21.7143C0 22.9714 1.05 24 2.33333 24H9.46167C8.77144 23.3437 8.20993 22.569 7.805 21.7143H2.33333V4.57143H4.66667V8H14V4.57143H16.3333V10.3771C17.1617 10.4914 17.9433 10.7314 18.6667 11.0629V4.57143C18.6667 3.31429 17.6167 2.28571 16.3333 2.28571ZM9.33333 4.57143C8.69167 4.57143 8.16667 4.05714 8.16667 3.42857C8.16667 2.8 8.69167 2.28571 9.33333 2.28571C9.975 2.28571 10.5 2.8 10.5 3.42857C10.5 4.05714 9.975 4.57143 9.33333 4.57143Z" fill="#999999"/>
</svg>
