<svg width="33" height="29" viewBox="0 0 33 29" fill="none" xmlns="http://www.w3.org/2000/svg">
<path d="M2.13634 27.6785L2.13633 27.6784L2.1322 27.6803C1.36846 28.0158 0.516667 27.4502 0.516668 26.6214L0.516665 26.6203L0.5 18.938C0.5 18.9379 0.5 18.9377 0.5 18.9375C0.500247 18.353 0.93364 17.8493 1.51777 17.7667C1.51828 17.7667 1.5188 17.7666 1.51932 17.7665L25.0659 14.6337L25.0663 13.6424L1.51629 10.4924L1.51629 10.4924L1.50957 10.4916C0.934617 10.4226 0.500247 9.92557 0.5 9.33852C0.5 9.33836 0.5 9.33819 0.5 9.33802L0.516665 1.65577H0.516666L0.516667 1.65478C0.516703 1.46304 0.564473 1.27433 0.655668 1.10566C0.746862 0.936999 0.878612 0.79369 1.03903 0.688668C1.19945 0.583645 1.38349 0.520212 1.57455 0.50409C1.76562 0.487969 1.95768 0.519666 2.13343 0.596324L2.13343 0.596333L2.13634 0.597581L31.2197 13.0642L31.2207 13.0647C31.4312 13.1543 31.6106 13.3039 31.7367 13.4947L32.0985 13.2556L31.7367 13.4947C31.8629 13.6856 31.9301 13.9093 31.9301 14.138C31.9301 14.3668 31.8629 14.5905 31.7367 14.7813L32.0846 15.0113L31.7367 14.7813C31.6106 14.9722 31.4312 15.1217 31.2207 15.2114L31.2197 15.2118L2.13634 27.6785Z" fill="#1B1BE6" stroke="#999999"/>
</svg>
