<svg width="18" height="16" viewBox="0 0 18 16" fill="none" xmlns="http://www.w3.org/2000/svg">
<path d="M16.5128 5.65095L11.5538 4.93024L9.33701 0.436103C9.27646 0.313057 9.17686 0.213447 9.05381 0.1529C8.74521 0.000556543 8.37021 0.12751 8.21592 0.436103L5.99912 4.93024L1.04014 5.65095C0.903418 5.67048 0.778418 5.73493 0.682715 5.83259C0.567015 5.95151 0.503259 6.1115 0.505457 6.2774C0.507654 6.4433 0.575625 6.60154 0.694434 6.71735L4.28232 10.2154L3.43467 15.1549C3.41479 15.2698 3.42751 15.3879 3.47137 15.496C3.51524 15.604 3.5885 15.6976 3.68285 15.7661C3.7772 15.8347 3.88886 15.8754 4.00518 15.8837C4.12149 15.892 4.2378 15.8675 4.34092 15.8131L8.77646 13.481L13.212 15.8131C13.3331 15.8775 13.4737 15.899 13.6085 15.8756C13.9483 15.817 14.1769 15.4947 14.1183 15.1549L13.2706 10.2154L16.8585 6.71735C16.9562 6.62165 17.0206 6.49665 17.0401 6.35993C17.0929 6.01813 16.8546 5.70173 16.5128 5.65095ZM11.7608 9.72321L12.4659 13.8306L8.77646 11.8931L5.08701 13.8326L5.79209 9.72517L2.80771 6.81501L6.93271 6.2154L8.77646 2.47907L10.6202 6.2154L14.7452 6.81501L11.7608 9.72321Z" fill="#FFC700"/>
</svg>
