<svg width="17" height="17" viewBox="0 0 17 17" fill="none" xmlns="http://www.w3.org/2000/svg">
<path d="M16.2418 5.98493L11.2828 5.26423L9.06602 0.770088C9.00547 0.647041 8.90586 0.547432 8.78281 0.486885C8.47422 0.334541 8.09922 0.461494 7.94492 0.770088L5.72812 5.26423L0.769141 5.98493C0.632422 6.00446 0.507422 6.06892 0.411719 6.16657C0.296019 6.28549 0.232263 6.44548 0.23446 6.61138C0.236658 6.77728 0.304629 6.93553 0.423437 7.05134L4.01133 10.5494L3.16367 15.4888C3.14379 15.6037 3.15651 15.7219 3.20038 15.83C3.24424 15.938 3.3175 16.0316 3.41185 16.1001C3.5062 16.1686 3.61787 16.2094 3.73418 16.2177C3.85049 16.226 3.9668 16.2015 4.06992 16.147L8.50547 13.815L12.941 16.147C13.0621 16.2115 13.2027 16.233 13.3375 16.2095C13.6773 16.1509 13.9059 15.8287 13.8473 15.4888L12.9996 10.5494L16.5875 7.05134C16.6852 6.95564 16.7496 6.83063 16.7691 6.69392C16.8219 6.35212 16.5836 6.03571 16.2418 5.98493Z" fill="#FFC700"/>
</svg>
