<svg width="38" height="38" viewBox="0 0 38 38" fill="none" xmlns="http://www.w3.org/2000/svg">
<path fill-rule="evenodd" clip-rule="evenodd" d="M31.25 10.4167C31.25 9.58785 31.5792 8.793 32.1653 8.20695C32.7513 7.6209 33.5462 7.29166 34.375 7.29166C35.2038 7.29166 35.9987 7.6209 36.5847 8.20695C37.1708 8.793 37.5 9.58785 37.5 10.4167V31.5656L34.375 36.2531L31.25 31.5656V10.4167ZM34.375 9.37499C34.0987 9.37499 33.8338 9.48474 33.6384 9.68009C33.4431 9.87544 33.3333 10.1404 33.3333 10.4167V30.9344L34.375 32.4969L35.4167 30.9344V10.4167C35.4167 10.1404 35.3069 9.87544 35.1116 9.68009C34.9162 9.48474 34.6513 9.37499 34.375 9.37499Z" fill="#C4C4C4"/>
<path fill-rule="evenodd" clip-rule="evenodd" d="M36.4583 14.5833H32.2917V12.5H36.4583V14.5833ZM4.16667 2.08333C3.61413 2.08333 3.08423 2.30283 2.69353 2.69353C2.30283 3.08423 2.08333 3.61413 2.08333 4.16667V33.3333C2.08333 33.8859 2.30283 34.4158 2.69353 34.8065C3.08423 35.1972 3.61413 35.4167 4.16667 35.4167H25C25.5525 35.4167 26.0824 35.1972 26.4731 34.8065C26.8638 34.4158 27.0833 33.8859 27.0833 33.3333V4.16667C27.0833 3.61413 26.8638 3.08423 26.4731 2.69353C26.0824 2.30283 25.5525 2.08333 25 2.08333H4.16667ZM0 4.16667C0 3.0616 0.438987 2.00179 1.22039 1.22039C2.00179 0.438987 3.0616 0 4.16667 0H25C26.1051 0 27.1649 0.438987 27.9463 1.22039C28.7277 2.00179 29.1667 3.0616 29.1667 4.16667V33.3333C29.1667 34.4384 28.7277 35.4982 27.9463 36.2796C27.1649 37.061 26.1051 37.5 25 37.5H4.16667C3.0616 37.5 2.00179 37.061 1.22039 36.2796C0.438987 35.4982 0 34.4384 0 33.3333V4.16667Z" fill="#C4C4C4"/>
<path fill-rule="evenodd" clip-rule="evenodd" d="M14.5833 9.37501C14.5833 9.09874 14.693 8.83379 14.8884 8.63844C15.0837 8.44309 15.3487 8.33334 15.6249 8.33334H23.9583C24.2345 8.33334 24.4995 8.44309 24.6948 8.63844C24.8902 8.83379 24.9999 9.09874 24.9999 9.37501C24.9999 9.65128 24.8902 9.91623 24.6948 10.1116C24.4995 10.3069 24.2345 10.4167 23.9583 10.4167H15.6249C15.3487 10.4167 15.0837 10.3069 14.8884 10.1116C14.693 9.91623 14.5833 9.65128 14.5833 9.37501ZM14.5833 13.5417C14.5833 13.2654 14.693 13.0005 14.8884 12.8051C15.0837 12.6098 15.3487 12.5 15.6249 12.5H23.9583C24.2345 12.5 24.4995 12.6098 24.6948 12.8051C24.8902 13.0005 24.9999 13.2654 24.9999 13.5417C24.9999 13.8179 24.8902 14.0829 24.6948 14.2782C24.4995 14.4736 24.2345 14.5833 23.9583 14.5833H15.6249C15.3487 14.5833 15.0837 14.4736 14.8884 14.2782C14.693 14.0829 14.5833 13.8179 14.5833 13.5417ZM14.5833 22.9167C14.5833 22.6404 14.693 22.3755 14.8884 22.1801C15.0837 21.9848 15.3487 21.875 15.6249 21.875H23.9583C24.2345 21.875 24.4995 21.9848 24.6948 22.1801C24.8902 22.3755 24.9999 22.6404 24.9999 22.9167C24.9999 23.1929 24.8902 23.4579 24.6948 23.6532C24.4995 23.8486 24.2345 23.9583 23.9583 23.9583H15.6249C15.3487 23.9583 15.0837 23.8486 14.8884 23.6532C14.693 23.4579 14.5833 23.1929 14.5833 22.9167ZM14.5833 27.0833C14.5833 26.8071 14.693 26.5421 14.8884 26.3468C15.0837 26.1514 15.3487 26.0417 15.6249 26.0417H23.9583C24.2345 26.0417 24.4995 26.1514 24.6948 26.3468C24.8902 26.5421 24.9999 26.8071 24.9999 27.0833C24.9999 27.3596 24.8902 27.6246 24.6948 27.8199C24.4995 28.0153 24.2345 28.125 23.9583 28.125H15.6249C15.3487 28.125 15.0837 28.0153 14.8884 27.8199C14.693 27.6246 14.5833 27.3596 14.5833 27.0833ZM6.24994 22.9167V26.0417H9.37494V22.9167H6.24994ZM5.20828 20.8333H10.4166C10.6929 20.8333 10.9578 20.9431 11.1532 21.1384C11.3485 21.3338 11.4583 21.5987 11.4583 21.875V27.0833C11.4583 27.3596 11.3485 27.6246 11.1532 27.8199C10.9578 28.0153 10.6929 28.125 10.4166 28.125H5.20828C4.93201 28.125 4.66706 28.0153 4.47171 27.8199C4.27636 27.6246 4.16661 27.3596 4.16661 27.0833V21.875C4.16661 21.5987 4.27636 21.3338 4.47171 21.1384C4.66706 20.9431 4.93201 20.8333 5.20828 20.8333ZM12.1947 8.63855C12.39 8.83389 12.4997 9.0988 12.4997 9.37501C12.4997 9.65122 12.39 9.91613 12.1947 10.1115L7.29161 15.0146L4.47182 12.1948C4.37233 12.0987 4.29297 11.9838 4.23838 11.8567C4.18379 11.7296 4.15505 11.5929 4.15385 11.4546C4.15265 11.3163 4.179 11.1791 4.23138 11.0511C4.28375 10.9231 4.3611 10.8068 4.45891 10.709C4.55671 10.6112 4.67302 10.5338 4.80103 10.4814C4.92905 10.4291 5.06622 10.4027 5.20453 10.4039C5.34284 10.4051 5.47953 10.4339 5.60661 10.4884C5.7337 10.543 5.84864 10.6224 5.94473 10.7219L7.29161 12.0688L10.7218 8.63855C10.9172 8.44327 11.1821 8.33357 11.4583 8.33357C11.7345 8.33357 11.9994 8.44327 12.1947 8.63855Z" fill="#C4C4C4"/>
</svg>
