<svg width="48" height="36" viewBox="0 0 48 36" fill="none" xmlns="http://www.w3.org/2000/svg">
<path d="M6 0C4.4087 0 2.88258 0.632141 1.75736 1.75736C0.632141 2.88258 0 4.4087 0 6V30C0 31.5913 0.632141 33.1174 1.75736 34.2426C2.88258 35.3679 4.4087 36 6 36H42C43.5913 36 45.1174 35.3679 46.2426 34.2426C47.3679 33.1174 48 31.5913 48 30V6C48 4.4087 47.3679 2.88258 46.2426 1.75736C45.1174 0.632141 43.5913 0 42 0H6ZM24 30C23.6022 30 23.2206 29.842 22.9393 29.5607C22.658 29.2794 22.5 28.8978 22.5 28.5V11.121L17.562 16.062C17.2803 16.3437 16.8983 16.5019 16.5 16.5019C16.1017 16.5019 15.7197 16.3437 15.438 16.062C15.1563 15.7803 14.9981 15.3983 14.9981 15C14.9981 14.6017 15.1563 14.2197 15.438 13.938L22.938 6.438C23.0773 6.29831 23.2429 6.18748 23.4251 6.11186C23.6073 6.03624 23.8027 5.99732 24 5.99732C24.1973 5.99732 24.3927 6.03624 24.5749 6.11186C24.7571 6.18748 24.9227 6.29831 25.062 6.438L32.562 13.938C32.8437 14.2197 33.0019 14.6017 33.0019 15C33.0019 15.3983 32.8437 15.7803 32.562 16.062C32.2803 16.3437 31.8983 16.5019 31.5 16.5019C31.1017 16.5019 30.7197 16.3437 30.438 16.062L25.5 11.121V28.5C25.5 28.8978 25.342 29.2794 25.0607 29.5607C24.7794 29.842 24.3978 30 24 30Z" fill="#BBBBBB"/>
</svg>
